<svg width="204" height="204" viewBox="0 0 204 204" fill="none" xmlns="http://www.w3.org/2000/svg">
<g clip-path="url(#clip0_105_9)">
<path d="M187.639 69.9024C193.092 67.8589 199.226 70.6146 200.696 76.2487C206.238 97.4866 204.802 120.051 196.436 140.546C186.737 164.31 168.435 183.543 145.182 194.409C121.928 205.275 95.4333 206.975 70.9821 199.169C46.5309 191.364 25.9211 174.628 13.2642 152.299C0.607315 129.97 -3.16619 103.69 2.69649 78.7019C8.55917 53.7137 23.627 31.8543 44.8941 17.4845C66.1612 3.11471 92.0641 -2.70908 117.435 1.17496C139.317 4.52476 159.415 14.883 174.791 30.5469C178.869 34.7023 178.083 41.3808 173.529 45.0093C168.975 48.6377 162.385 47.8275 158.195 43.7835C146.212 32.2158 130.877 24.5645 114.244 22.0182C94.1181 18.9371 73.5701 23.5569 56.6994 34.9561C39.8288 46.3553 27.8758 63.6958 23.2251 83.5183C18.5744 103.34 21.5679 124.188 31.6082 141.901C41.6486 159.614 57.9979 172.89 77.3943 179.082C96.7908 185.274 117.809 183.925 136.255 175.305C154.701 166.686 169.219 151.429 176.914 132.578C183.273 116.999 184.584 99.912 180.815 83.6883C179.497 78.0167 182.187 71.946 187.639 69.9024Z" fill="url(#paint0_linear_105_9)"/>
<path d="M81.32 116H68.04C67.1067 116 66.4533 115.093 66.08 113.28C65.8933 112.293 65.8 111.547 65.8 111.04C65.8 110.533 65.88 110.2 66.04 110.04C72.0133 103.88 75 99.6933 75 97.48C75 96.7333 74.8 96.1733 74.4 95.8C74.0267 95.4267 73.4133 95.24 72.56 95.24C71.7333 95.24 70.8933 95.4 70.04 95.72C69.2133 96.04 68.56 96.3867 68.08 96.76C67.04 95.5067 66.32 94.1867 65.92 92.8C65.7867 92.3467 65.72 91.9333 65.72 91.56C65.72 91.16 65.7867 90.7867 65.92 90.44C66.1333 89.7467 67.12 89.0933 68.88 88.48C70.6667 87.8667 72.5467 87.56 74.52 87.56C80.4933 87.56 83.48 90.2133 83.48 95.52C83.48 97.8667 82.68 100.253 81.08 102.68C79.48 105.08 77.6133 107.16 75.48 108.92L83.56 108.6C83.6933 110.013 83.76 111.24 83.76 112.28C83.76 113.32 83.5467 114.2 83.12 114.92C82.6933 115.64 82.0933 116 81.32 116ZM97.7756 116.4C94.4423 116.4 91.709 115.173 89.5756 112.72C87.469 110.267 86.4156 106.68 86.4156 101.96C86.4156 97.24 87.4823 93.68 89.6156 91.28C91.749 88.8533 94.4956 87.64 97.8556 87.64C101.242 87.64 103.976 88.84 106.056 91.24C108.136 93.64 109.176 97.2533 109.176 102.08C109.176 106.907 108.109 110.507 105.976 112.88C103.869 115.227 101.136 116.4 97.7756 116.4ZM97.7756 95.32C96.7623 95.32 95.8956 95.9067 95.1756 97.08C94.4823 98.2267 94.1356 99.8667 94.1356 102C94.1356 104.133 94.469 105.773 95.1356 106.92C95.829 108.04 96.709 108.6 97.7756 108.6C98.869 108.6 99.749 108.027 100.416 106.88C101.109 105.733 101.456 104.093 101.456 101.96C101.456 99.8267 101.096 98.1867 100.376 97.04C99.6823 95.8933 98.8156 95.32 97.7756 95.32ZM118.003 87.56C119.816 87.56 121.296 88.2133 122.443 89.52C123.589 90.8267 124.163 92.7467 124.163 95.28C124.163 97.7867 123.589 99.6933 122.443 101C121.323 102.307 119.869 102.96 118.083 102.96C116.296 102.96 114.829 102.333 113.683 101.08C112.536 99.8 111.963 97.88 111.963 95.32C111.963 92.7333 112.523 90.8 113.643 89.52C114.763 88.2133 116.216 87.56 118.003 87.56ZM119.963 95.24C119.963 93.5067 119.336 92.64 118.083 92.64C116.829 92.64 116.203 93.5067 116.203 95.24C116.203 96.0667 116.376 96.6933 116.723 97.12C117.069 97.5467 117.523 97.76 118.083 97.76C118.643 97.76 119.096 97.5467 119.443 97.12C119.789 96.6933 119.963 96.0667 119.963 95.24ZM134.523 100.92C136.336 100.92 137.816 101.573 138.963 102.88C140.109 104.187 140.683 106.107 140.683 108.64C140.683 111.147 140.109 113.053 138.963 114.36C137.843 115.667 136.389 116.32 134.603 116.32C132.816 116.32 131.349 115.693 130.203 114.44C129.056 113.16 128.483 111.24 128.483 108.68C128.483 106.093 129.043 104.16 130.163 102.88C131.283 101.573 132.736 100.92 134.523 100.92ZM136.483 108.6C136.483 106.867 135.856 106 134.603 106C133.349 106 132.723 106.867 132.723 108.6C132.723 109.427 132.896 110.053 133.243 110.48C133.589 110.907 134.043 111.12 134.603 111.12C135.163 111.12 135.616 110.907 135.963 110.48C136.309 110.053 136.483 109.427 136.483 108.6ZM133.683 87.92C133.923 87.7067 134.176 87.6 134.443 87.6C135.429 87.6 136.323 88.0933 137.123 89.08C137.443 89.48 137.603 89.8133 137.603 90.08C137.603 90.32 137.549 90.5067 137.443 90.64L118.443 116.08C118.203 116.293 117.949 116.4 117.683 116.4C116.723 116.4 115.843 115.893 115.043 114.88C114.696 114.48 114.523 114.16 114.523 113.92C114.523 113.68 114.576 113.493 114.683 113.36L133.683 87.92Z" fill="white"/>
</g>
<defs>
<linearGradient id="paint0_linear_105_9" x1="-12.4348" y1="91.2148" x2="228.124" y2="92.0983" gradientUnits="userSpaceOnUse">
<stop stop-color="#AA367C"/>
<stop offset="1" stop-color="#4A2FBD"/>
</linearGradient>
<clipPath id="clip0_105_9">
<rect width="204" height="204" fill="white"/>
</clipPath>
</defs>
</svg>
